<svg width="25" height="25" viewBox="0 0 25 25" fill="none" xmlns="http://www.w3.org/2000/svg">
<path d="M24.3923 0.392334V24.3923H0.392334L0.392334 0.392334L24.3923 0.392334Z" fill="white" fill-opacity="0.01"/>
<path d="M12.3923 2.39233C17.9151 2.39233 22.3923 6.86956 22.3923 12.3923C22.3923 17.5045 18.5558 21.7205 13.6042 22.3201L13.6042 15.448H16.3083L16.8689 12.3923H13.6003L13.6003 11.3113C13.6004 9.69538 14.2329 9.07593 15.8728 9.07593C16.3801 9.07593 16.792 9.08723 17.0281 9.11108V6.34351C16.5796 6.21964 15.4883 6.09546 14.8562 6.09546C11.5162 6.09547 9.97632 7.67205 9.97632 11.0759V12.3923H7.91284V15.448L9.97632 15.448L9.97632 22.0984C5.62043 21.0177 2.39233 17.0822 2.39233 12.3923C2.39233 6.86956 6.86956 2.39233 12.3923 2.39233Z" fill="#0866FF"/>
</svg>
