<svg width="33" height="33" viewBox="0 0 33 33" fill="none" xmlns="http://www.w3.org/2000/svg">
<rect x="0.246094" y="0.912109" width="32" height="32" rx="16" fill="#0B0707"/>
<g clip-path="url(#clip0_2783_6997)">
<g clip-path="url(#clip1_2783_6997)">
<g clip-path="url(#clip2_2783_6997)">
<path d="M20.2461 8.91511L18.1711 8.91211C15.8411 8.91211 14.3341 10.4581 14.3341 12.8501V14.6651H12.2481C12.2052 14.6651 12.1628 14.6736 12.1231 14.69C12.0835 14.7065 12.0475 14.7306 12.0172 14.7609C11.987 14.7913 11.963 14.8274 11.9466 14.867C11.9303 14.9067 11.922 14.9492 11.9221 14.9921V17.6221C11.9221 17.8021 12.0681 17.9481 12.2481 17.9481H14.3341V24.5861C14.3341 24.7661 14.4801 24.9121 14.6601 24.9121H17.3821C17.5621 24.9121 17.7081 24.7661 17.7081 24.5861V17.9481H20.1481C20.3281 17.9481 20.4741 17.8021 20.4741 17.6221V14.9921C20.4741 14.9057 20.4399 14.8229 20.3791 14.7616C20.3182 14.7003 20.2355 14.6656 20.1491 14.6651H17.7091V13.1261C17.7091 12.3861 17.8851 12.0111 18.8491 12.0111H20.2461C20.4261 12.0111 20.5721 11.8641 20.5721 11.6841V9.24211C20.5723 9.19921 20.5639 9.15672 20.5476 9.11705C20.5313 9.07738 20.5073 9.04132 20.477 9.01095C20.4467 8.98057 20.4107 8.95647 20.3711 8.94002C20.3315 8.92357 20.289 8.91511 20.2461 8.91511Z" fill="white"/>
</g>
</g>
</g>
<defs>
<clipPath id="clip0_2783_6997">
<rect width="16" height="16" fill="white" transform="translate(8.24609 8.91211)"/>
</clipPath>
<clipPath id="clip1_2783_6997">
<rect width="16" height="16" fill="white" transform="translate(8.24609 8.91211)"/>
</clipPath>
<clipPath id="clip2_2783_6997">
<rect width="17" height="16" fill="white" transform="translate(7.74609 8.91211)"/>
</clipPath>
</defs>
</svg>
