<svg width="25" height="25" viewBox="0 0 25 25" fill="none" xmlns="http://www.w3.org/2000/svg">
<path d="M24.3923 0.392334V24.3923H0.392334L0.392334 0.392334L24.3923 0.392334Z" fill="white" fill-opacity="0.01"/>
<rect x="2.39233" y="2.39233" width="20" height="20" rx="4.3" fill="url(#paint0_radial_2922_7729)"/>
<rect x="2.39233" y="2.39233" width="20" height="20" rx="4.3" fill="url(#paint1_radial_2922_7729)"/>
<path d="M17.3924 8.46355C17.3924 9.05529 16.9127 9.53498 16.3209 9.53498C15.7292 9.53498 15.2495 9.05529 15.2495 8.46355C15.2495 7.87182 15.7292 7.39212 16.3209 7.39212C16.9127 7.39212 17.3924 7.87182 17.3924 8.46355Z" fill="white"/>
<path fill-rule="evenodd" clip-rule="evenodd" d="M12.3924 15.9636C14.3648 15.9636 15.9638 14.3646 15.9638 12.3921C15.9638 10.4197 14.3648 8.8207 12.3924 8.8207C10.4199 8.8207 8.82094 10.4197 8.82094 12.3921C8.82094 14.3646 10.4199 15.9636 12.3924 15.9636ZM12.3924 14.535C13.5758 14.535 14.5352 13.5756 14.5352 12.3921C14.5352 11.2087 13.5758 10.2493 12.3924 10.2493C11.2089 10.2493 10.2495 11.2087 10.2495 12.3921C10.2495 13.5756 11.2089 14.535 12.3924 14.535Z" fill="white"/>
<path fill-rule="evenodd" clip-rule="evenodd" d="M5.24951 12.1064C5.24951 9.70619 5.24951 8.50607 5.71663 7.58931C6.12751 6.7829 6.78314 6.12727 7.58955 5.71638C8.50632 5.24927 9.70643 5.24927 12.1067 5.24927H12.6781C15.0783 5.24927 16.2784 5.24927 17.1952 5.71638C18.0016 6.12727 18.6572 6.7829 19.0681 7.58931C19.5352 8.50607 19.5352 9.70619 19.5352 12.1064V12.6778C19.5352 15.0781 19.5352 16.2782 19.0681 17.1949C18.6572 18.0013 18.0016 18.657 17.1952 19.0679C16.2784 19.535 15.0783 19.535 12.6781 19.535H12.1067C9.70643 19.535 8.50632 19.535 7.58955 19.0679C6.78314 18.657 6.12751 18.0013 5.71663 17.1949C5.24951 16.2782 5.24951 15.0781 5.24951 12.6778V12.1064ZM12.1067 6.67784H12.6781C13.9018 6.67784 14.7336 6.67895 15.3766 6.73148C16.0029 6.78266 16.3232 6.87541 16.5466 6.98925C17.0842 7.26317 17.5213 7.70026 17.7952 8.23787C17.9091 8.46129 18.0018 8.78159 18.053 9.40789C18.1055 10.0509 18.1067 10.8827 18.1067 12.1064V12.6778C18.1067 13.9015 18.1055 14.7334 18.053 15.3764C18.0018 16.0027 17.9091 16.323 17.7952 16.5464C17.5213 17.084 17.0842 17.5211 16.5466 17.795C16.3232 17.9088 16.0029 18.0016 15.3766 18.0528C14.7336 18.1053 13.9018 18.1064 12.6781 18.1064H12.1067C10.883 18.1064 10.0511 18.1053 9.40814 18.0528C8.78183 18.0016 8.46154 17.9088 8.23811 17.795C7.7005 17.5211 7.26342 17.084 6.98949 16.5464C6.87565 16.323 6.7829 16.0027 6.73173 15.3764C6.67919 14.7334 6.67808 13.9015 6.67808 12.6778V12.1064C6.67808 10.8827 6.67919 10.0509 6.73173 9.40789C6.7829 8.78159 6.87565 8.46129 6.98949 8.23787C7.26342 7.70026 7.7005 7.26317 8.23811 6.98925C8.46154 6.87541 8.78183 6.78266 9.40814 6.73148C10.0511 6.67895 10.883 6.67784 12.1067 6.67784Z" fill="white"/>
<defs>
<radialGradient id="paint0_radial_2922_7729" cx="0" cy="0" r="1" gradientUnits="userSpaceOnUse" gradientTransform="translate(7.70486 23.9328) rotate(-90) scale(19.8215 18.4355)">
<stop stop-color="#FFDD55"/>
<stop offset="0.1" stop-color="#FFDD55"/>
<stop offset="0.5" stop-color="#FF543E"/>
<stop offset="1" stop-color="#C837AB"/>
</radialGradient>
<radialGradient id="paint1_radial_2922_7729" cx="0" cy="0" r="1" gradientUnits="userSpaceOnUse" gradientTransform="translate(-0.957772 3.8331) rotate(78.6806) scale(8.86028 36.5225)">
<stop stop-color="#3771C8"/>
<stop offset="0.128" stop-color="#3771C8"/>
<stop offset="1" stop-color="#6600FF" stop-opacity="0"/>
</radialGradient>
</defs>
</svg>
