<svg width="33" height="33" viewBox="0 0 33 33" fill="none" xmlns="http://www.w3.org/2000/svg">
<rect x="0.246094" y="0.912109" width="32" height="32" rx="16" fill="#0B0707"/>
<g clip-path="url(#clip0_2783_7011)">
<g clip-path="url(#clip1_2783_7011)">
<g clip-path="url(#clip2_2783_7011)">
<mask id="mask0_2783_7011" style="mask-type:luminance" maskUnits="userSpaceOnUse" x="8" y="8" width="17" height="17">
<path d="M8.24609 8.91211H24.2461V24.9121H8.24609V8.91211Z" fill="white"/>
</mask>
<g mask="url(#mask0_2783_7011)">
<path d="M19.2461 8.91211H13.2461C11.92 8.91211 10.6482 9.43889 9.71056 10.3766C8.77288 11.3143 8.24609 12.586 8.24609 13.9121V19.9121C8.24609 21.2382 8.77288 22.51 9.71056 23.4476C10.6482 24.3853 11.92 24.9121 13.2461 24.9121H19.2461C20.5722 24.9121 21.8439 24.3853 22.7816 23.4476C23.7193 22.51 24.2461 21.2382 24.2461 19.9121V13.9121C24.2461 12.586 23.7193 11.3143 22.7816 10.3766C21.8439 9.43889 20.5722 8.91211 19.2461 8.91211ZM22.7461 19.9121C22.7461 21.8421 21.1761 23.4121 19.2461 23.4121H13.2461C11.3161 23.4121 9.74609 21.8421 9.74609 19.9121V13.9121C9.74609 11.9821 11.3161 10.4121 13.2461 10.4121H19.2461C21.1761 10.4121 22.7461 11.9821 22.7461 13.9121V19.9121Z" fill="white"/>
<path d="M16.2461 12.9121C15.1852 12.9121 14.1678 13.3335 13.4177 14.0837C12.6675 14.8338 12.2461 15.8512 12.2461 16.9121C12.2461 17.9729 12.6675 18.9904 13.4177 19.7405C14.1678 20.4907 15.1852 20.9121 16.2461 20.9121C17.307 20.9121 18.3244 20.4907 19.0745 19.7405C19.8247 18.9904 20.2461 17.9729 20.2461 16.9121C20.2461 15.8512 19.8247 14.8338 19.0745 14.0837C18.3244 13.3335 17.307 12.9121 16.2461 12.9121ZM16.2461 19.4121C15.5833 19.4113 14.9479 19.1476 14.4792 18.679C14.0105 18.2103 13.7469 17.5749 13.7461 16.9121C13.7461 15.5331 14.8681 14.4121 16.2461 14.4121C17.6241 14.4121 18.7461 15.5331 18.7461 16.9121C18.7461 18.2901 17.6241 19.4121 16.2461 19.4121ZM20.5451 13.1461C20.6151 13.1461 20.6844 13.1323 20.7491 13.1055C20.8137 13.0787 20.8725 13.0395 20.922 12.99C20.9715 12.9405 21.0107 12.8817 21.0375 12.817C21.0643 12.7524 21.0781 12.6831 21.0781 12.6131C21.0781 12.5431 21.0643 12.4738 21.0375 12.4091C21.0107 12.3444 20.9715 12.2857 20.922 12.2362C20.8725 12.1867 20.8137 12.1474 20.7491 12.1207C20.6844 12.0939 20.6151 12.0801 20.5451 12.0801C20.4037 12.0801 20.2682 12.1362 20.1682 12.2362C20.0682 12.3361 20.0121 12.4717 20.0121 12.6131C20.0121 12.7544 20.0682 12.89 20.1682 12.99C20.2682 13.0899 20.4037 13.1461 20.5451 13.1461Z" fill="white"/>
</g>
</g>
</g>
</g>
<defs>
<clipPath id="clip0_2783_7011">
<rect width="16" height="16" fill="white" transform="translate(8.24609 8.91211)"/>
</clipPath>
<clipPath id="clip1_2783_7011">
<rect width="16" height="16" fill="white" transform="translate(8.24609 8.91211)"/>
</clipPath>
<clipPath id="clip2_2783_7011">
<rect width="17" height="16" fill="white" transform="translate(7.74609 8.91211)"/>
</clipPath>
</defs>
</svg>
