<svg width="33" height="33" viewBox="0 0 33 33" fill="none" xmlns="http://www.w3.org/2000/svg">
<rect x="0.246094" y="0.912109" width="32" height="32" rx="16" fill="#0B0707"/>
<g clip-path="url(#clip0_2783_7002)">
<g clip-path="url(#clip1_2783_7002)">
<g clip-path="url(#clip2_2783_7002)">
<mask id="mask0_2783_7002" style="mask-type:luminance" maskUnits="userSpaceOnUse" x="8" y="8" width="17" height="17">
<path d="M8.24609 8.91211H24.2461V24.9121H8.24609V8.91211Z" fill="white"/>
</mask>
<g mask="url(#mask0_2783_7002)">
<path d="M10.1695 8.92538C9.91307 8.91912 9.65795 8.96424 9.41919 9.05806C9.18043 9.15188 8.96285 9.29252 8.77926 9.47169C8.59566 9.65086 8.44976 9.86495 8.35015 10.1014C8.25054 10.3378 8.19922 10.5917 8.19922 10.8482C8.19922 11.1048 8.25054 11.3587 8.35015 11.5951C8.44976 11.8315 8.59566 12.0456 8.77926 12.2248C8.96285 12.404 9.18043 12.5446 9.41919 12.6384C9.65795 12.7322 9.91307 12.7773 10.1695 12.7711C10.6714 12.7589 11.1486 12.5509 11.4992 12.1916C11.8498 11.8324 12.0461 11.3502 12.0461 10.8482C12.0461 10.3462 11.8498 9.86411 11.4992 9.50484C11.1486 9.14557 10.6714 8.93761 10.1695 8.92538ZM8.50896 14.2282H11.8255V24.8979H8.50896V14.2282ZM20.269 13.9654C18.6564 13.9654 17.5741 14.8499 17.1318 15.6888H17.0872V14.2305H13.9067V24.8991H17.221V19.6214C17.221 18.2305 17.4838 16.8819 19.2095 16.8819C20.9101 16.8819 20.933 18.4739 20.933 19.7105V24.8991H24.2472V19.0488C24.2472 16.1757 23.6267 13.9665 20.2701 13.9665L20.269 13.9654Z" fill="white"/>
</g>
</g>
</g>
</g>
<defs>
<clipPath id="clip0_2783_7002">
<rect width="16" height="16" fill="white" transform="translate(8.24609 8.91211)"/>
</clipPath>
<clipPath id="clip1_2783_7002">
<rect width="16" height="16" fill="white" transform="translate(8.24609 8.91211)"/>
</clipPath>
<clipPath id="clip2_2783_7002">
<rect width="17.1429" height="16" fill="white" transform="translate(7.67383 8.91211)"/>
</clipPath>
</defs>
</svg>
