<svg width="25" height="25" viewBox="0 0 25 25" fill="none" xmlns="http://www.w3.org/2000/svg">
<path d="M24.3923 0.392334V24.3923H0.392334L0.392334 0.392334L24.3923 0.392334Z" fill="white" fill-opacity="0.01"/>
<path d="M18.7289 18.7294H16.0619V14.5527C16.0619 13.5567 16.0441 12.2745 14.6748 12.2745C13.2857 12.2745 13.0731 13.3597 13.0731 14.4802V18.7292H10.4062V10.1401H12.9665V11.3139H13.0023C13.2586 10.8757 13.6288 10.5153 14.0737 10.271C14.5185 10.0267 15.0213 9.90756 15.5285 9.92638C18.2317 9.92638 18.7301 11.7044 18.7301 14.0176L18.7289 18.7294ZM7.39681 8.96605C6.54202 8.96619 5.84895 8.27333 5.84881 7.41854C5.84867 6.56375 6.54146 5.87068 7.39625 5.87054C8.25103 5.87033 8.94411 6.56319 8.94425 7.41798C8.94432 7.82847 8.78133 8.22217 8.49113 8.51249C8.20093 8.80281 7.8073 8.96596 7.39681 8.96605ZM8.73036 18.7295H6.06052L6.06052 10.1401H8.73028V18.7294L8.73036 18.7295ZM20.0585 3.39364L4.72036 3.39364C3.99544 3.38549 3.40095 3.9662 3.39209 4.69112L3.39209 20.0933C3.40067 20.8186 3.99509 21.3998 4.72029 21.3922H20.0585C20.7853 21.4012 21.382 20.82 21.3921 20.0933V4.68993C21.3818 3.9636 20.7849 3.38296 20.0585 3.39245" fill="#0A66C2"/>
</svg>
