<svg width="33" height="33" viewBox="0 0 33 33" fill="none" xmlns="http://www.w3.org/2000/svg">
<rect x="0.246094" y="0.912109" width="32" height="32" rx="16" fill="#0B0707"/>
<g clip-path="url(#clip0_2783_7021)">
<g clip-path="url(#clip1_2783_7021)">
<g clip-path="url(#clip2_2783_7021)">
<mask id="mask0_2783_7021" style="mask-type:luminance" maskUnits="userSpaceOnUse" x="7" y="8" width="18" height="17">
<path d="M7.71313 8.91211H24.7798V24.8406H7.71313V8.91211Z" fill="white"/>
</mask>
<g mask="url(#mask0_2783_7021)">
<path d="M24.941 9.97265V22.3353C24.9411 22.405 24.9241 22.4737 24.8915 22.5353C24.8589 22.5969 24.8117 22.6496 24.754 22.6887C24.6963 22.7279 24.6299 22.7523 24.5606 22.7599C24.4913 22.7674 24.4212 22.7579 24.3565 22.7321L16.4077 19.5535L23.5223 10.858C23.5322 10.8457 23.5385 10.8309 23.5405 10.8152C23.5424 10.7996 23.54 10.7837 23.5335 10.7693C23.527 10.7549 23.5166 10.7427 23.5035 10.7338C23.4904 10.725 23.4752 10.72 23.4594 10.7193C23.4385 10.7184 23.418 10.7253 23.4018 10.7385L13.8477 18.6991L8.99648 17.3124C8.91254 17.2882 8.83803 17.2389 8.78301 17.1711C8.728 17.1032 8.69513 17.0201 8.68885 16.933C8.68257 16.8459 8.70318 16.759 8.74789 16.6839C8.7926 16.6089 8.85927 16.5494 8.93888 16.5135L24.3394 9.58439C24.4044 9.55517 24.4757 9.5427 24.5467 9.54811C24.6178 9.55351 24.6863 9.57663 24.7462 9.61534C24.806 9.65406 24.8552 9.70714 24.8892 9.76974C24.9232 9.83234 24.941 9.9014 24.941 9.97265ZM15.3325 23.8969C15.3538 23.9715 15.3951 24.0389 15.4518 24.0918C15.5086 24.1447 15.5787 24.1811 15.6546 24.1971C15.7306 24.2131 15.8094 24.2082 15.8827 24.1827C15.956 24.1572 16.021 24.1123 16.0706 24.0527L18.0727 21.6505L14.2647 20.1615L15.3325 23.8969Z" fill="white"/>
</g>
</g>
</g>
</g>
<defs>
<clipPath id="clip0_2783_7021">
<rect width="16" height="16" fill="white" transform="translate(8.24609 8.91211)"/>
</clipPath>
<clipPath id="clip1_2783_7021">
<rect width="16" height="16" fill="white" transform="translate(8.24609 8.91211)"/>
</clipPath>
<clipPath id="clip2_2783_7021">
<rect width="18.1333" height="16" fill="white" transform="translate(7.17969 8.91211)"/>
</clipPath>
</defs>
</svg>
