<svg width="25" height="25" viewBox="0 0 25 25" fill="none" xmlns="http://www.w3.org/2000/svg">
<path d="M24.3923 0.392334V24.3923H0.392334L0.392334 0.392334L24.3923 0.392334Z" fill="white" fill-opacity="0.01"/>
<path d="M12.3923 2.39233C15.0439 2.39233 17.5892 3.44642 19.4626 5.32104C21.3376 7.19573 22.3923 9.74124 22.3923 12.3923C22.3923 15.0434 21.3376 17.5889 19.4626 19.4636C17.5892 21.3382 15.0439 22.3923 12.3923 22.3923C9.74082 22.3923 7.19545 21.3382 5.32202 19.4636C3.44702 17.5889 2.39233 15.0434 2.39233 12.3923C2.39285 9.74012 3.44665 7.19648 5.32202 5.32104C7.19545 3.44642 9.74082 2.39233 12.3923 2.39233ZM16.4812 8.41187C16.1046 8.41869 15.5277 8.6191 12.7498 9.77417C11.7778 10.1787 9.8342 11.0169 6.9187 12.2869C6.44559 12.475 6.19659 12.6587 6.17456 12.8386C6.13081 13.1844 6.62968 13.2923 7.25464 13.4958C7.76554 13.6618 8.45305 13.8563 8.80933 13.864C9.1343 13.871 9.49492 13.7367 9.89331 13.4626C12.6129 11.6277 14.0179 10.6991 14.1121 10.6755C14.1746 10.6615 14.2613 10.643 14.3191 10.6951C14.3782 10.7468 14.3722 10.8451 14.366 10.8718C14.3175 11.0829 11.7594 13.4089 11.6111 13.5632C11.0486 14.1476 10.4079 14.5054 11.3953 15.156C12.25 15.719 12.747 16.078 13.6267 16.655C14.1891 17.0236 14.6296 17.4612 15.2107 17.408C15.4778 17.3834 15.7542 17.1317 15.8933 16.3826C16.2245 14.6116 16.8761 10.7746 17.0261 9.19312C17.0402 9.05485 17.023 8.87752 17.0105 8.79956C16.9964 8.72167 16.9689 8.61011 16.8689 8.52808C16.7486 8.43085 16.564 8.41054 16.4812 8.41187Z" fill="url(#paint0_linear_2932_7741)"/>
<defs>
<linearGradient id="paint0_linear_2932_7741" x1="12.3923" y1="2.39233" x2="12.3923" y2="22.3923" gradientUnits="userSpaceOnUse">
<stop stop-color="#2AABEE"/>
<stop offset="1" stop-color="#229ED9"/>
</linearGradient>
</defs>
</svg>
