<svg width="25" height="25" viewBox="0 0 25 25" fill="none" xmlns="http://www.w3.org/2000/svg">
<path d="M24.3923 0.392334V24.3923H0.392334L0.392334 0.392334L24.3923 0.392334Z" fill="white" fill-opacity="0.01"/>
<path d="M12.383 5.36255C12.4383 5.36256 18.635 5.36409 20.1798 5.7854C20.6036 5.90012 20.9895 6.12442 21.3 6.43481C21.6104 6.74531 21.8347 7.13205 21.9494 7.55591C22.6096 10.2142 22.457 14.4122 21.9621 17.1731C21.8474 17.597 21.6231 17.9837 21.3126 18.2942C21.0022 18.6046 20.6163 18.8289 20.1925 18.9436C18.6475 19.365 12.4481 19.3664 12.3957 19.3665C12.3957 19.3665 6.14953 19.3668 4.59781 18.9436C4.1741 18.8289 3.78809 18.6046 3.47769 18.2942C3.1672 17.9837 2.94297 17.597 2.82827 17.1731C2.16411 14.5263 2.34628 10.3256 2.81558 7.5686C2.93026 7.14473 3.15451 6.75802 3.46499 6.44751C3.77541 6.13714 4.16139 5.9128 4.58511 5.7981C6.13684 5.3749 12.383 5.36255 12.383 5.36255ZM10.3947 15.3655L15.5753 12.3645L10.3947 9.36353L10.3947 15.3655Z" fill="#FF0000"/>
</svg>
